<?xml version="1.0" standalone="no"?>
<!DOCTYPE svg PUBLIC "-//W3C//DTD SVG 20010904//EN"
 "http://www.w3.org/TR/2001/REC-SVG-20010904/DTD/svg10.dtd">
<svg version="1.0" xmlns="http://www.w3.org/2000/svg"
 width="512.000000pt" height="512.000000pt" viewBox="0 0 512.000000 512.000000"
 preserveAspectRatio="xMidYMid meet">

<g transform="translate(0.000000,512.000000) scale(0.100000,-0.100000)"
fill="#2d1569" stroke="none">
<path d="M0 2560 l0 -2560 2560 0 2560 0 0 2560 0 2560 -2560 0 -2560 0 0
-2560z m2360 909 c30 -5 200 -9 376 -9 303 0 324 -1 368 -21 112 -49 116 -182
8 -232 -46 -21 -58 -22 -424 -22 l-378 0 0 -312 0 -313 324 0 324 0 31 -26
c17 -14 35 -40 40 -59 13 -48 -4 -124 -34 -155 l-25 -25 -328 -5 -327 -5 0
-495 c0 -518 0 -513 -43 -562 -10 -13 -30 -18 -63 -18 -41 0 -53 5 -77 30 -56
58 -55 47 -59 1033 l-4 908 -44 19 c-52 22 -75 60 -75 125 0 49 26 111 62 147
20 20 27 20 157 13 75 -4 161 -11 191 -16z"/>
</g>
</svg>
