<?xml version="1.0" standalone="no"?>
<!DOCTYPE svg PUBLIC "-//W3C//DTD SVG 20010904//EN"
 "http://www.w3.org/TR/2001/REC-SVG-20010904/DTD/svg10.dtd">
<svg xmlns="http://www.w3.org/2000/svg" version="1.0" width="1024.000000pt" height="500.000000pt" viewBox="0 0 1024.000000 500.000000" preserveAspectRatio="xMidYMid meet">

<g transform="translate(0.000000,500.000000) scale(0.100000,-0.100000)" fill="#2d1569" stroke="none">
<path d="M0 2500 l0 -2500 5120 0 5120 0 0 2500 0 2500 -5120 0 -5120 0 0 -2500z m8485 950 c39 -12 111 -41 161 -65 101 -47 145 -90 189 -188 24 -52 27 -69 32 -249 6 -199 -10 -607 -27 -713 -5 -33 -14 -109 -19 -170 -12 -129 -43 -205 -105 -254 -44 -35 -95 -47 -259 -61 -65 -6 -137 -14 -160 -20 -70 -15 -417 -40 -712 -50 -159 -6 -1036 -10 -2027 -9 l-1747 1 -33 24 c-39 29 -48 30 -81 4 -35 -28 -65 -26 -73 5 -3 14 -10 25 -14 25 -10 0 -46 -19 -82 -44 -22 -14 -37 -17 -80 -11 -29 4 -63 16 -76 26 -16 12 -30 16 -45 10 -12 -4 -56 -5 -97 -1 -242 23 -373 30 -720 35 -212 4 -412 10 -445 15 -174 24 -226 34 -290 53 -38 12 -79 27 -90 34 -11 7 -29 13 -41 13 -35 0 -50 26 -36 63 10 25 9 35 -3 54 -8 12 -15 29 -15 38 0 9 -7 30 -16 48 -24 46 -25 151 -3 203 22 49 32 57 80 73 21 7 51 25 67 41 30 28 45 34 162 62 64 15 72 33 40 78 -19 27 -22 41 -19 113 l4 81 -39 8 c-22 5 -47 15 -55 22 -9 7 -29 18 -46 23 -16 5 -39 24 -50 41 -78 122 -98 152 -126 192 -37 51 -53 125 -38 170 20 57 166 104 364 115 66 4 133 12 150 17 16 5 107 16 200 23 94 8 224 19 290 24 66 6 181 15 255 21 74 6 178 15 230 21 64 8 567 11 1530 10 1131 0 1483 3 1660 14 124 8 338 17 475 20 138 3 410 12 605 21 501 21 514 21 825 19 259 -2 285 -4 350 -25z"/>
<path d="M3535 3050 c-137 -28 -207 -78 -262 -186 -39 -77 -55 -291 -33 -444 33 -228 188 -342 445 -327 121 7 201 39 272 109 29 29 53 57 53 63 0 6 9 29 21 50 51 98 48 444 -5 552 -63 126 -168 183 -351 189 -55 1 -118 -1 -140 -6z m171 -236 c18 -9 38 -22 45 -30 28 -34 42 -256 22 -367 -14 -84 -40 -107 -119 -107 -85 0 -109 21 -125 110 -18 102 -22 198 -11 228 6 15 14 53 17 85 6 57 8 59 48 78 52 23 79 24 123 3z" fill="#ff3030"/>
<path d="M5430 3051 c-104 -19 -149 -40 -209 -100 -78 -78 -111 -172 -118 -341 -4 -102 -2 -126 22 -215 43 -160 96 -226 222 -276 48 -19 78 -23 173 -23 97 -1 126 3 189 24 127 43 180 107 225 270 39 142 36 260 -9 423 -43 155 -156 231 -353 241 -54 2 -117 1 -142 -3z m166 -240 c57 -35 69 -76 69 -256 0 -134 -3 -165 -17 -187 -34 -52 -46 -58 -118 -58 -66 0 -68 1 -96 38 -29 37 -29 38 -32 198 -3 148 -2 165 18 208 32 72 110 97 176 57z" fill="#ff3030"/>
<path d="M2600 3031 c-6 -13 -10 -174 -10 -456 0 -282 4 -443 10 -456 10 -17 22 -19 123 -19 75 0 117 4 125 12 8 8 12 61 12 174 0 138 2 164 17 175 11 10 48 15 115 16 55 1 102 3 104 5 10 10 16 100 10 142 l-7 46 -92 0 c-120 0 -141 11 -145 72 -3 40 1 49 24 67 24 19 40 21 140 21 135 0 134 -1 137 121 2 61 -1 82 -13 89 -8 6 -129 10 -277 10 -249 0 -263 -1 -273 -19z"/>
<path d="M4233 3040 l-23 -9 0 -456 0 -455 28 -11 c37 -14 356 -5 452 13 135 25 239 114 288 246 20 55 25 91 29 202 5 128 4 140 -22 214 -53 154 -121 215 -275 244 -88 17 -445 26 -477 12z m384 -231 c26 -7 50 -23 65 -43 21 -29 23 -41 26 -191 l3 -160 -30 -42 c-44 -61 -131 -83 -171 -43 -19 19 -20 33 -20 229 0 115 4 221 9 235 15 37 34 39 118 15z"/>
<path d="M6100 3031 c-6 -13 -10 -174 -10 -456 0 -282 4 -443 10 -456 10 -17 22 -19 120 -19 76 0 111 4 117 13 4 6 10 102 13 212 6 238 13 251 73 128 96 -198 168 -328 189 -340 31 -17 229 -18 246 -1 19 19 17 911 -2 927 -9 8 -51 11 -122 9 l-109 -3 -5 -205 c-3 -113 -9 -211 -13 -217 -13 -20 -27 -15 -38 15 -12 28 -64 139 -144 304 -25 53 -53 99 -61 102 -9 3 -69 6 -134 6 -108 0 -120 -2 -130 -19z" fill="#ff3030"/>
<path d="M7061 3036 c-8 -9 -10 -142 -9 -472 l3 -459 111 -3 c84 -2 114 1 122 11 8 9 13 82 14 208 3 182 4 194 22 194 19 0 51 -51 136 -222 22 -45 45 -85 50 -88 4 -3 11 -19 15 -35 12 -54 49 -70 167 -70 68 0 108 4 116 12 17 17 17 909 0 926 -15 15 -165 16 -202 2 l-26 -10 -1 -177 c-1 -98 -4 -189 -8 -203 -8 -30 -39 -39 -47 -13 -8 24 -41 95 -98 214 -25 53 -46 99 -46 102 0 3 -14 26 -31 51 l-30 46 -123 0 c-92 0 -126 -3 -135 -14z" fill="#ff3030"/>
</g>
</svg>